<svg xmlns="http://www.w3.org/2000/svg" data-name="Layer 1" viewBox="0 0 700 550"><path fill="#f7f9f9" d="M265.28107,436.19769c-41.00278,10.44924-44.17005,26.848-84.98723,37.95767-20.238,5.50815-67.44277,18.35588-98.43544-7.05488C55.77915,445.718,55.06454,408.62817,54.94353,402.30516c-.76415-39.71074,17.90175-49.38889,43.86229-108.6576,12.77281-29.16007,14.16052-48.13144,22.0637-85.09673,5.98991-28.00865,23.74759-53.5243,52.36942-71.24281,45.34911-28.07436,98.18648-10.98862,106.99444-8.14177,44.59187,14.41869,48.7538,40.01732,85.72946,64.79534,84.43978,56.58666,159.44341-12.10089,226.28683,37.88044,44.44439,33.23325,65.81073,104.37578,44.53429,157.4379-25.03848,62.44061-105.30715,90.32364-162.16349,83.80238-47.06184-5.39863-58.83536-32.16137-130.58876-39.87552-22.55929-2.42388-47.766-4.90537-78.75064,2.9909"/><path fill="#585a66" d="M414.41681,435.62183H163.75214A10.0556,10.0556,0,0,1,153.72556,425.56V258.98046a10.05559,10.05559,0,0,1,10.02658-10.06185H414.41681a10.05559,10.05559,0,0,1,10.02658,10.06185V425.56A10.0556,10.0556,0,0,1,414.41681,435.62183ZM174.86621,424.442H413.30274V260.09844H174.86621Z"/><path fill="#9fb1c1" d="M255.33362 429.97785v0a37.87818 37.87818 0 01-37.87818 37.87818H361.16981a37.87818 37.87818 0 01-37.87818-37.87818v0zM217.45544 467.85607H375.74119a2 2 0 012 2v10.6742a0 0 0 010 0H215.45544a0 0 0 010 0v-10.6742A2 2 0 01217.45544 467.85607z"/><path fill="#d6e4f0" d="M271.6309,430.05173v0A37.87818,37.87818,0,0,1,233.75272,467.93H377.46709a37.87818,37.87818,0,0,1-37.87818-37.87818v0Z"/><path fill="#ddd" d="M375.28737,467.92993h2.17972c-.76782,0-1.52858-.02979-2.285-.07487C375.21666,467.88049,375.25256,467.90463,375.28737,467.92993Z"/><path fill="#b1c5da" d="M293.88129,445.455l46.40306-8.18414a38.05142,38.05142,0,0,1-.69548-7.21912v-.00007h-67.958v.00007a37.87808,37.87808,0,0,1-37.87822,37.87815h42.28606c-1.58465-9.01333,1.29036-14.08664,6.80307-18.00575A27.11414,27.11414,0,0,1,293.88129,445.455Z"/><path fill="#add4dc" d="M174.70725,428.27628H423.14378V264.5087H174.70725Z"/><rect width="259.577" height="174.908" x="173.593" y="255.143" fill="#71b8e6" rx="4.456"/><path fill="#4b9dd7" d="M188.633,255.7035c-.4122,5.84884-.70186,12.75606-.62394,20.52106A248.56094,248.56094,0,0,0,242.6652,430.0547H178.04942a4.455,4.455,0,0,1-4.45626-4.45626V259.60273a4.45568,4.45568,0,0,1,4.45626-4.45626H433.17035v.557Z"/><path fill="#32333c" d="M428.71409,435.62183H178.04942a10.0379,10.0379,0,0,1-10.02658-10.02659V259.59953A10.03789,10.03789,0,0,1,178.04942,249.573H428.71409a10.03789,10.03789,0,0,1,10.02658,10.02658V425.59524A10.0379,10.0379,0,0,1,428.71409,435.62183Zm-249.5506-11.14065H427.6V260.7136H179.16349Z"/><rect width="62.342" height="4.456" x="267.755" y="307.981" fill="#f9f9fc"/><rect width="62.342" height="4.456" x="267.755" y="320.875" fill="#f9f9fc"/><rect width="62.342" height="4.456" x="267.755" y="346.662" fill="#f9f9fc"/><rect width="62.342" height="4.456" x="267.755" y="359.556" fill="#f9f9fc"/><rect width="31.572" height="4.456" x="285.524" y="333.769" fill="#f9f9fc"/><rect width="62.342" height="28.83" x="267.754" y="373.885" fill="#f9f9fc"/><rect width="248.437" height="22.677" x="179.163" y="260.714" fill="#f0f0f2"/><path fill="#ddd" d="M179.16347,260.71359v22.67676h9.025c-.09223-2.45466-.15729-4.85865-.17938-7.16578-.05677-5.653.0827-10.84466.321-15.511Z"/><circle cx="200.308" cy="272.052" r="3.653" fill="#add4dc"/><circle cx="213.643" cy="272.052" r="3.653" fill="#ffcb5c"/><circle cx="226.863" cy="272.052" r="3.653" fill="#ef403a"/><path fill="#ef403a" d="M278.19612 393.24483l-1.44825-2.50977c-.58984-.96045-.96-1.584-1.31445-2.24072h-.0332c-.32031.65674-.64063 1.26318-1.22949 2.25732l-1.36524 2.49317h-1.68457l3.4707-5.74414-3.33593-5.60987h1.70215l1.499 2.66163c.4209.74121.74121 1.314 1.04394 1.92041h.05079c.32031-.67383.60644-1.1958 1.02734-1.92041l1.5498-2.66163h1.68457l-3.45312 5.5254 3.53711 5.82861zM287.56233 393.24483l-1.44824-2.50977c-.58985-.96045-.96094-1.584-1.31446-2.24072h-.0332c-.32031.65674-.64063 1.26318-1.23047 2.25732l-1.36426 2.49317h-1.68457l3.47071-5.74414-3.33594-5.60987h1.70117l1.5 2.66163c.4209.74121.74121 1.314 1.044 1.92041h.05078c.32031-.67383.60644-1.1958 1.02734-1.92041l1.5498-2.66163h1.68458l-3.45313 5.5254 3.53809 5.82861zM296.92854 393.24483l-1.44824-2.50977c-.58985-.96045-.96-1.584-1.31446-2.24072h-.0332c-.32031.65674-.64062 1.26318-1.22949 2.25732l-1.36524 2.49317h-1.68457l3.47071-5.74414-3.33594-5.60987h1.70215l1.499 2.66163c.4209.74121.74121 1.314 1.04395 1.92041h.05078c.32031-.67383.60644-1.1958 1.02734-1.92041l1.54981-2.66163h1.68457l-3.45313 5.5254 3.53711 5.82861zM306.29475 393.24483l-1.44824-2.50977c-.58985-.96045-.96094-1.584-1.31446-2.24072h-.0332c-.32031.65674-.64062 1.26318-1.23047 2.25732l-1.36426 2.49317h-1.68457l3.47071-5.74414-3.33594-5.60987h1.70117l1.5 2.66163c.4209.74121.74121 1.314 1.04395 1.92041h.05078c.32031-.67383.60644-1.1958 1.02734-1.92041l1.54981-2.66163h1.68457l-3.45313 5.5254 3.53809 5.82861zM315.661 393.24483l-1.44824-2.50977c-.58985-.96045-.96-1.584-1.31445-2.24072h-.03321c-.32031.65674-.64062 1.26318-1.22949 2.25732l-1.36523 2.49317h-1.68457l3.4707-5.74414-3.33594-5.60987h1.70215l1.499 2.66163c.4209.74121.74121 1.314 1.04395 1.92041h.05078c.32031-.67383.60644-1.1958 1.02734-1.92041l1.54981-2.66163h1.68457l-3.45313 5.5254 3.53711 5.82861zM325.02717 393.24483l-1.44824-2.50977c-.58984-.96045-.96094-1.584-1.31445-2.24072h-.03321c-.32031.65674-.64062 1.26318-1.23047 2.25732l-1.36425 2.49317H317.952l3.4707-5.74414-3.33594-5.60987h1.70117l1.5 2.66163c.4209.74121.74121 1.314 1.04395 1.92041h.05078c.32031-.67383.60645-1.1958 1.02734-1.92041l1.54981-2.66163h1.68457l-3.45313 5.5254 3.53809 5.82861z"/><path fill="#f29720" d="M192.94652,480.53027c31.372-4.00478,55.85333-37.30842,55.85333-77.79946a95.18867,95.18867,0,0,0-5.47684-32.13068h0a21.22022,21.22022,0,0,1-19.71519-13.45973H164.31349a21.22022,21.22022,0,0,1-19.71518,13.45973h0a95.18867,95.18867,0,0,0-5.47684,32.13068c0,40.491,24.48134,73.79468,55.85332,77.79946Z"/><path fill="#ffcb5c" d="M193.06817,473.12962c27.60874-3.52438,49.15342-32.83307,49.15342-68.467a83.77015,83.77015,0,0,0-4.81987-28.27642h0A18.67475,18.67475,0,0,1,220.05148,364.541H167.86983a18.67472,18.67472,0,0,1-17.35023,11.84517h0a83.76991,83.76991,0,0,0-4.81987,28.27642c0,35.63392,21.54467,64.94261,49.15341,68.467Z"/><path fill="#f29720" d="M179.57209,433.61908a24.30351,24.30351,0,0,0,12.29981,3.46875c7.0166,0,11.11621-3.70508,11.11621-9.06641,0-4.9668-2.83789-7.80566-10.0127-10.56445-8.67285-3.0752-14.03418-7.56934-14.03418-15.05957,0-8.27832,6.85938-14.42774,17.1875-14.42774a24.15264,24.15264,0,0,1,11.74805,2.60156l-1.89258,5.59766a21.17328,21.17328,0,0,0-10.09179-2.52246c-7.25391,0-10.0127,4.33594-10.0127,7.96289,0,4.9668,3.23242,7.41113,10.56445,10.249,8.98828,3.46973,13.56055,7.80567,13.56055,15.61133,0,8.19922-6.07031,15.29492-18.60644,15.29492-5.125,0-10.72266-1.498-13.56055-3.38965Z"/><rect width="5.386" height="4" x="135.717" y="480.32" fill="#222328"/><rect width="13.68" height="4" x="143.983" y="480.32" fill="#222328"/><rect width="387.358" height="4" x="161.503" y="480.32" fill="#222328"/><rect width="9.98" height="4" x="554.302" y="480.32" fill="#222328"/><path fill="#585a66" d="M526.102,468.10034a7.82865,7.82865,0,0,1-7.80366,7.80365H452.7549a7.83,7.83,0,0,1-7.81-7.80365V259.56849a7.83,7.83,0,0,1,7.81-7.80369h65.54342a7.82868,7.82868,0,0,1,7.80366,7.80369ZM520.4783,247.1395H430.5686A11.62562,11.62562,0,0,0,418.98,258.73441v210.2a11.62565,11.62565,0,0,0,11.5886,11.595h89.9097a11.63107,11.63107,0,0,0,11.59492-11.595v-210.2A11.631,11.631,0,0,0,520.4783,247.1395Z"/><rect width="113.096" height="233.392" x="430.394" y="247.139" fill="#7dcdf9" rx="11.595"/><path fill="#71b8e6" d="M430.39376,258.73325V468.93561a11.62873,11.62873,0,0,0,11.59465,11.59465h38.6762l9.52018-4.62627c-38.7214-5.85118-39.08022-224.13919-39.08022-224.13919l-5.71092-4.62615h-3.40524A11.62872,11.62872,0,0,0,430.39376,258.73325Z"/><path fill="#32333c" d="M531.895,247.1395h-89.9097a11.62562,11.62562,0,0,0-11.5886,11.59491v210.2a11.62565,11.62565,0,0,0,11.5886,11.595H531.895a11.63107,11.63107,0,0,0,11.59492-11.595v-210.2A11.631,11.631,0,0,0,531.895,247.1395Zm5.62368,220.96084A7.82865,7.82865,0,0,1,529.715,475.904H444.17155a7.83,7.83,0,0,1-7.81-7.80365V259.56849a7.83,7.83,0,0,1,7.81-7.80369H529.715a7.82868,7.82868,0,0,1,7.80366,7.80369Z"/><path fill="#32333c" d="M543.48949,277.11689h2.08786a1.95127,1.95127,0,0,1,1.95127,1.95127v16.76143a1.95127,1.95127,0,0,1-1.95127,1.95127h-2.08786a0,0,0,0,1,0,0v-20.664A0,0,0,0,1,543.48949,277.11689Z"/><path fill="#32333c" d="M426.35464,296.07318h2.08786a1.95127,1.95127,0,0,1,1.95127,1.95127v16.76143a1.95127,1.95127,0,0,1-1.95127,1.95127h-2.08786a0,0,0,0,1,0,0v-20.664A0,0,0,0,1,426.35464,296.07318Z" transform="rotate(180 428.374 306.405)"/><path fill="#32333c" d="M426.35464,325.29826h2.08786a1.95127,1.95127,0,0,1,1.95127,1.95127V344.011a1.95127,1.95127,0,0,1-1.95127,1.95127h-2.08786a0,0,0,0,1,0,0v-20.664A0,0,0,0,1,426.35464,325.29826Z" transform="rotate(180 428.374 335.63)"/><path fill="#32333c" d="M492.093,258.807H476.99048a1.46338,1.46338,0,1,1,0-2.92676H492.093a1.46338,1.46338,0,1,1,0,2.92676Z"/><rect width="15.103" height="2.927" x="515.421" y="262.232" fill="#f0f0f2"/><circle cx="497.855" cy="257.344" r="1.24" fill="#32333c"/><circle cx="486.942" cy="464.549" r="7.551" fill="#32333c"/><rect width="86.168" height="11.308" x="443.442" y="273.432" fill="#f0f0f2"/><path fill="#ddd" d="M451.4264,273.43206h-7.98431v11.30821h8.28628C451.60505,280.66973,451.50581,276.88,451.4264,273.43206Z"/><path fill="#ef403a" d="M528.86648,282.88341l-2.95748-3.90978a3.2539,3.2539,0,1,0-1.46433,1.11558l2.95343,3.90447Zm-6.68034-4.97754a1.40441,1.40441,0,1,1,1.96743.27254A1.393,1.393,0,0,1,522.18614,277.90587Z"/><rect width="71.206" height="34.991" x="451.339" y="364.046" fill="#ffcb5c"/><path fill="#f29720" d="M456.34186,364.04558h-5.0031v34.99113h8.98285C458.73917,387.72688,457.42764,375.88834,456.34186,364.04558Z"/><rect width="64.389" height="5.891" x="454.747" y="416.916" fill="#ffcb5c"/><path fill="#f29720" d="M463.148,416.91558h-8.4008v5.89078h9.50356Q463.68356,419.907,463.148,416.91558Z"/><rect width="64.389" height="5.891" x="454.747" y="435.484" fill="#ffcb5c"/><rect width="64.389" height="5.891" x="454.747" y="303.46" fill="#ffcb5c"/><path fill="#f29720" d="M467.01242,435.48389H454.74715v5.89077h13.78394Q467.74862,438.51413,467.01242,435.48389Z"/><path fill="#ef403a" d="M466.21263 387.21817l-1.44824-2.50976c-.58984-.96045-.96-1.584-1.31445-2.24072h-.03321c-.32031.65673-.64062 1.26318-1.22949 2.25732l-1.36523 2.49316h-1.68457l3.4707-5.74414-3.33594-5.60986h1.70215l1.499 2.66162c.4209.74121.74121 1.314 1.04395 1.92041h.05078c.32031-.67383.60645-1.1958 1.02734-1.92041l1.54981-2.66162h1.68457l-3.45313 5.52539 3.53711 5.82861zM475.57884 387.21817l-1.44824-2.50976c-.58984-.96045-.96094-1.584-1.31445-2.24072h-.03321c-.32031.65673-.64062 1.26318-1.23047 2.25732l-1.36425 2.49316h-1.68457l3.4707-5.74414-3.33594-5.60986h1.70117l1.5 2.66162c.4209.74121.74122 1.314 1.04395 1.92041h.05078c.32031-.67383.60645-1.1958 1.02734-1.92041l1.54981-2.66162H477.196l-3.45313 5.52539 3.53809 5.82861zM484.94505 387.21817l-1.44824-2.50976c-.58984-.96045-.96-1.584-1.31445-2.24072h-.03321c-.32031.65673-.64062 1.26318-1.22949 2.25732l-1.36523 2.49316h-1.68457l3.4707-5.74414-3.33594-5.60986h1.70215l1.499 2.66162c.42089.74121.74121 1.314 1.04394 1.92041h.05078c.32031-.67383.60645-1.1958 1.02735-1.92041l1.5498-2.66162h1.68457l-3.45312 5.52539 3.5371 5.82861zM494.31126 387.21817l-1.44824-2.50976c-.58984-.96045-.96094-1.584-1.31445-2.24072h-.0332c-.32032.65673-.64063 1.26318-1.23047 2.25732l-1.36426 2.49316h-1.68457l3.4707-5.74414-3.33594-5.60986H489.072l1.5 2.66162c.42089.74121.74121 1.314 1.04394 1.92041h.05078c.32032-.67383.60645-1.1958 1.02735-1.92041l1.5498-2.66162h1.68457l-3.45312 5.52539 3.53808 5.82861zM503.67747 387.21817l-1.44824-2.50976c-.58984-.96045-.96-1.584-1.31445-2.24072h-.0332c-.32032.65673-.64063 1.26318-1.2295 2.25732l-1.36523 2.49316h-1.68457l3.4707-5.74414-3.33593-5.60986h1.70214l1.499 2.66162c.4209.74121.74121 1.314 1.04394 1.92041h.05078c.32032-.67383.60645-1.1958 1.02735-1.92041l1.5498-2.66162h1.68457l-3.45312 5.52539 3.53711 5.82861zM513.04369 387.21817l-1.44825-2.50976c-.58984-.96045-.96093-1.584-1.31445-2.24072h-.0332c-.32032.65673-.64063 1.26318-1.23047 2.25732l-1.36426 2.49316h-1.68457l3.4707-5.74414-3.33593-5.60986h1.70117l1.5 2.66162c.4209.74121.74121 1.314 1.04394 1.92041h.05078c.32032-.67383.60645-1.1958 1.02735-1.92041l1.5498-2.66162h1.68457l-3.45312 5.52539 3.53808 5.82861z"/><circle cx="389.814" cy="332.309" r="49.79" fill="#ffcb5c"/><path fill="#f29720" d="M361.69126,332.30856a49.79812,49.79812,0,0,1,38.956-48.59362,49.7896,49.7896,0,1,0,0,97.18724A49.79833,49.79833,0,0,1,361.69126,332.30856Z"/><rect width="119.368" height="17.196" x="330.13" y="295.338" fill="#ef403a" rx="8.598"/><rect width="51.358" height="7.399" x="364.135" y="354.957" fill="#ef403a" rx="3.699"/><path fill="#c62831" d="M364.1346,358.65608a3.69934,3.69934,0,0,0,3.69946,3.69922h3.95728a49.7596,49.7596,0,0,1-4.62427-7.33142A3.69521,3.69521,0,0,0,364.1346,358.65608Z"/><path fill="#ef403a" d="M374.10071,255.06239h31.42594a31.80305,31.80305,0,0,1,31.80305,31.80305v8.47243a0,0,0,0,1,0,0h-95.032a0,0,0,0,1,0,0v-8.47243A31.80305,31.80305,0,0,1,374.10071,255.06239Z"/><path fill="#ef403a" d="M374.10071,255.06239h31.42594a31.80305,31.80305,0,0,1,31.80305,31.80305v8.47243a0,0,0,0,1,0,0h-95.032a0,0,0,0,1,0,0v-8.47243A31.80305,31.80305,0,0,1,374.10071,255.06239Z"/><path fill="#c62831" d="M398.63907,255.06245H374.1009a31.803,31.803,0,0,0-31.80342,31.803v8.47236h24.53869v-8.47236A31.8029,31.8029,0,0,1,398.63907,255.06245Z"/><path fill="#ef403a" d="M340.07168,330.42607h99.484a49.9048,49.9048,0,0,0-1.01843-8.38915h-97.4471A49.9048,49.9048,0,0,0,340.07168,330.42607Z"/><path fill="#c62831" d="M341.09011,322.03692l-.00051.00384c-.27343,1.30389-.48746,2.6289-.65489,3.96851-.0128.10023-.02612.20033-.03841.30069-.16129,1.35663-.27291,2.7285-.32462,4.11611h21.702a49.796,49.796,0,0,1,1.02305-8.38915Z"/><polygon fill="#ef403a" points="375.848 345.899 361.691 345.899 361.691 326.232 390.005 326.232 390.005 336.065 375.848 345.899"/><polygon fill="#ef403a" points="418.318 345.899 404.161 345.899 390.005 336.065 390.005 326.232 418.318 326.232 418.318 345.899"/><path fill="#c62831" d="M361.69126 326.23175v6.07681a49.98049 49.98049 0 01.4127-6.07681zM361.69126 332.30856V345.899h1.90527A49.7381 49.7381 0 01361.69126 332.30856z"/><rect width="17.676" height="2.08" x="361.546" y="331.268" fill="#f9f9fc" transform="rotate(-45 370.384 332.308)"/><rect width="17.676" height="2.08" x="370.174" y="333.252" fill="#f9f9fc" transform="rotate(-45 379.012 334.292)"/><rect width="17.676" height="2.08" x="393.683" y="331.268" fill="#f9f9fc" transform="rotate(-45 402.521 332.308)"/><rect width="17.676" height="2.08" x="402.311" y="333.252" fill="#f9f9fc" transform="rotate(-45 411.15 334.292)"/><path fill="#c62831" d="M370.62286 312.53373c-3.89432-.03588-5.30676-5.316-2.03861-7.434 5.91008-3.83029 19.41706-8.91513 49.80752-9.76186l-79.29452 0a8.84781 8.84781 0 00-8.92733 7.75356 8.59974 8.59974 0 008.55767 9.44271H370.702zM418.39177 295.33784h18.93807C430.36874 295.16106 424.0989 295.17885 418.39177 295.33784z"/><path fill="#ef403a" d="M458.85874,401.902v75.63013a3.0025,3.0025,0,0,1-3,3H323.76889a3.0025,3.0025,0,0,1-3-3V401.902a20.3677,20.3677,0,0,1,20.36963-20.36011H374.5687l14.95019,21.4502.33985-.32007v-.01h.01025l.08008-.07007.05957-.07007,22.01025-20.98h26.46973a1.48171,1.48171,0,0,1,.21045.01A20.35391,20.35391,0,0,1,458.85874,401.902Z"/><path fill="#c62831" d="M400.33872,480.53218H323.76889a3.0025,3.0025,0,0,1-3-3V401.902a20.3677,20.3677,0,0,1,20.36963-20.36011,180.63986,180.63986,0,0,0,9.11035,46.30005c.50977,1.46,1.04,2.90991,1.6001,4.37012C360.119,453.7021,374.68882,475.072,400.33872,480.53218Z"/><polygon fill="#b12432" points="389.945 402.589 389.523 402.991 374.572 381.541 342.214 381.541 390.005 416.33 389.945 402.589"/><polygon fill="#c62831" points="389.873 402.657 389.814 416.33 438.741 381.684 438.698 381.541 412.019 381.541 389.873 402.657"/><polygon fill="#c62831" points="349.845 381.618 347.772 358.99 390.034 381.508 390.005 409.574 349.845 381.618"/><polygon fill="#ef403a" points="429.294 381.618 429.294 362.649 390.034 381.508 389.814 409.574 429.294 381.618"/><path fill="#b12432" d="M351.849,429.802v50.73023h-4V429.802a1.99932,1.99932,0,0,1,2-2,1.75054,1.75054,0,0,1,.3999.04A2.01385,2.01385,0,0,1,351.849,429.802Z"/><path fill="#c62831" d="M430.37876,429.802v50.73023h-4V429.802a2,2,0,0,1,4,0Z"/></svg>