<svg xmlns="http://www.w3.org/2000/svg" width="1150" height="1150" viewBox="0 0 1150 1150"><defs><linearGradient id="a" x1="59.549%" x2="40.451%" y1="31.792%" y2="68.208%"><stop offset="0%" stop-color="#FFF"/><stop offset="100%" stop-color="#FFF" stop-opacity="0"/></linearGradient><linearGradient id="b" x1="59.557%" x2="40.475%" y1="31.806%" y2="68.208%"><stop offset="0%" stop-color="#FFF"/><stop offset="100%" stop-color="#FFF" stop-opacity="0"/></linearGradient><linearGradient id="c" x1="22.682%" x2="51.843%" y1="9.77%" y2="53.402%"><stop offset="0%" stop-color="#FFF"/><stop offset="100%" stop-color="#FFF" stop-opacity="0"/></linearGradient><linearGradient id="d" x1="22.681%" x2="51.843%" y1="9.769%" y2="53.4%"><stop offset="0%" stop-color="#FFF"/><stop offset="100%" stop-color="#FFF" stop-opacity="0"/></linearGradient><linearGradient id="e" x1="55.551%" x2="43.383%" y1="43.687%" y2="51.231%"><stop offset="0%" stop-color="#FFF"/><stop offset="100%" stop-color="#FFF" stop-opacity="0"/></linearGradient><linearGradient id="f" x1="41.325%" x2="59.729%" y1="29.921%" y2="72.543%"><stop offset="0%" stop-color="#FFF"/><stop offset="100%" stop-color="#FFF" stop-opacity="0"/></linearGradient><linearGradient id="g" x1="33.94%" x2="63.388%" y1="1.35%" y2="90.556%"><stop offset="0%" stop-color="#FFF"/><stop offset="100%" stop-color="#FFF" stop-opacity="0"/></linearGradient><linearGradient id="h" x1="33.882%" x2="65.14%" y1="12.33%" y2="85.538%"><stop offset="0%" stop-color="#FFF"/><stop offset="100%" stop-color="#FFF" stop-opacity="0"/></linearGradient><linearGradient id="i" x1="70.309%" x2="33.096%" y1="31.273%" y2="65.587%"><stop offset="0%" stop-color="#FFF"/><stop offset="100%" stop-color="#FFF" stop-opacity="0"/></linearGradient><linearGradient id="j" x1="63.458%" x2="29.714%" y1="35.524%" y2="71.804%"><stop offset="0%" stop-color="#FFF"/><stop offset="100%" stop-color="#FFF" stop-opacity="0"/></linearGradient></defs><g fill="none" fill-rule="evenodd"><rect width="1150" height="1150" fill="#003ECB"/><g transform="translate(133 159)"><polygon fill="url(#a)" fill-rule="nonzero" points="393.4 219.4 177.9 97.5 176.9 209.2 392.4 331.1" opacity=".2"/><polygon fill="#FFF" fill-rule="nonzero" points="232.8 155.6 297.6 192.3 297.5 205.7 232.7 169" opacity=".15"/><polygon fill="#FFF" fill-rule="nonzero" points="232.6 182.5 370.6 260.6 370.5 274.2 232.5 196.1" opacity=".15"/><path fill="#F2C94C" d="M221.3,159.7 C221.2,168.9 215.7,173.3 208.9,169.4 C202.1,165.6 196.7,155 196.8,145.8 C196.9,136.6 202.4,132.2 209.2,136.1 C216,139.9 221.4,150.5 221.3,159.7 Z"/><polygon fill="url(#b)" fill-rule="nonzero" points="883.4 719.8 668 597.9 667 709.6 882.5 831.5" opacity=".2"/><polygon fill="#FFF" fill-rule="nonzero" points="722.9 656 787.7 692.7 787.6 706.1 722.8 669.4" opacity=".15"/><polygon fill="#FFF" fill-rule="nonzero" points="722.7 682.9 860.7 761 860.6 774.6 722.6 696.5" opacity=".15"/><path fill="#F2C94C" d="M711.4,660.1 C711.3,669.3 705.8,673.7 699,669.8 C692.2,666 686.8,655.4 686.9,646.2 C687,637 692.5,632.6 699.3,636.5 C706.1,640.3 711.5,650.9 711.4,660.1 Z"/><path fill="url(#c)" fill-rule="nonzero" d="M632.1,4.7 C591.5,12.6 500.2,22.8 460.4,0.3 C460.7,159.5 499.7,385.4 627.2,571.7 C756.7,530.8 799.2,351.1 802.2,193.8 C762.4,171.2 672.2,58.3 632.1,4.7 Z" opacity=".1"/><path fill="url(#d)" fill-rule="nonzero" d="M582.5,37.7 C541.9,45.6 450.6,55.8 410.8,33.3 C411.1,192.5 450.1,418.4 577.6,604.7 C707.1,563.8 749.6,384 752.6,226.8 C712.8,204.2 622.6,91.3 582.5,37.7 Z" opacity=".3"/><path fill="url(#e)" fill-rule="nonzero" d="M752.7,226.7 C712.8,204.1 622.7,91.3 582.6,37.7 L577.7,604.6 C707.1,563.8 749.6,384 752.7,226.7 Z" opacity=".4"/><polygon fill="url(#f)" fill-rule="nonzero" points="366 338.5 566.7 449 566.8 817.7 366.1 707.3" opacity=".1"/><polygon fill="url(#g)" fill-rule="nonzero" points="392 554 543.3 637.3 543.7 769.5 392.4 686.2" opacity=".2"/><polygon fill="#FFF" fill-rule="nonzero" points="394.7 466 464.7 504.5 464.7 518.1 394.7 479.6" opacity=".15"/><polygon fill="#FFF" fill-rule="nonzero" points="395 493 465 531.5 465 545.1 395 506.6" opacity=".15"/><polygon fill="#FFF" fill-rule="nonzero" points="394.9 519 527.7 592.1 527.7 605.7 394.9 532.6" opacity=".15"/><polygon fill="url(#h)" fill-rule="nonzero" points="366 338.5 566.7 449 566.9 512.7 366.1 402.3" opacity=".2"/><path fill="#FFF" fill-rule="nonzero" d="M416.2,398.4 C416.2,408 410.5,412.7 403.5,408.8 C396.5,404.9 390.7,394 390.7,384.3 C390.7,374.7 396.4,370 403.4,373.9 C410.5,377.8 416.2,388.8 416.2,398.4 Z" opacity=".2"/><polygon fill="#F2C94C" points="485.2 552.8 485 498 621.1 572.9 621.3 627.7"/><polygon fill="url(#i)" fill-rule="nonzero" points="329.8 321.4 32.2 149.7 32.3 304.8 303.6 461.4 329.9 500.3" opacity=".3"/><polygon fill="#F2994A" points=".5 210.1 .5 168 112.8 232.8 112.8 274.9"/><polygon fill="#FFF" fill-rule="nonzero" points="253.3 315 188.1 277.4 188.1 291 253.3 328.6" opacity=".15"/><polygon fill="#FFF" fill-rule="nonzero" points="253.3 342.3 127.6 269.8 127.6 283.4 253.3 355.9" opacity=".15"/><polygon fill="#FFF" fill-rule="nonzero" points="253.3 369.5 101 281.6 101 295.2 253.3 383.1" opacity=".15"/><path fill="#F2994A" d="M269.3,338.5 C269.3,351.3 276.9,366 286.2,371.4 C295.5,376.8 303.1,370.8 303.1,358 C303.1,345.2 295.5,330.5 286.2,325.1 C276.9,319.7 269.3,325.7 269.3,338.5 Z"/><path fill="url(#j)" fill-rule="nonzero" d="M234,481.2 C240,484.6 244.8,493 244.8,499.9 L244.8,530.4 L265,542 C271,545.4 275.8,553.8 275.8,560.7 C275.8,567.6 271,570.4 265,567 L244.8,555.4 L244.8,585.9 C244.8,592.8 240,595.6 234,592.2 C228,588.8 223.2,580.4 223.2,573.5 L223.2,543 L203,531.3 C197,527.9 192.2,519.5 192.2,512.6 C192.2,505.7 197,502.9 203,506.3 L223.2,517.9 L223.2,487.4 C223.2,480.6 228,477.8 234,481.2 Z" opacity=".2"/></g></g></svg>